<svg viewBox="0 0 280 64" xmlns="http://www.w3.org/2000/svg"><g fill="none" stroke="black" stroke-width="2" stroke-linejoin="round" stroke-linecap="round"><g transform="translate(0,0)"><rect x="1" y="1" width="62" height="62" fill="white" stroke="black" stroke-width="1.6"/><g transform="translate(32.0,32.0)"><line x1="0" y1="0" x2="0.0" y2="-26.0"/><circle cx="0.0" cy="-26.0" r="3" fill="black"/><line x1="0" y1="0" x2="24.7" y2="-8.0"/><polygon points="24.73,-8.03 21.82,-1.83 18.73,-11.34" fill="black"/><line x1="0" y1="0" x2="15.3" y2="21.0"/><polygon points="15.28,21.03 8.49,20.19 16.58,14.31" fill="black"/><line x1="0" y1="0" x2="-15.3" y2="21.0"/><polygon points="-15.28,21.03 -16.58,14.31 -8.49,20.19" fill="black"/><line x1="0" y1="0" x2="-24.7" y2="-8.0"/><polygon points="-24.73,-8.03 -18.73,-11.34 -21.82,-1.83" fill="black"/></g></g><g transform="translate(72,0)"><rect x="1" y="1" width="62" height="62" fill="white" stroke="black" stroke-width="1.6"/><g transform="translate(32.0,32.0)"><line x1="0" y1="0" x2="0.0" y2="-26.0"/><circle cx="0.0" cy="-26.0" r="3" fill="black"/><line x1="0" y1="0" x2="24.7" y2="-8.0"/><polygon points="24.73,-8.03 21.82,-1.83 18.73,-11.34" fill="black"/><line x1="0" y1="0" x2="15.3" y2="21.0"/><polygon points="15.28,21.03 8.49,20.19 16.58,14.31" fill="black"/><line x1="0" y1="0" x2="-15.3" y2="21.0"/><polygon points="-15.28,21.03 -16.58,14.31 -8.49,20.19" fill="black"/><line x1="0" y1="0" x2="-24.7" y2="-8.0"/><polygon points="-24.73,-8.03 -18.73,-11.34 -21.82,-1.83" fill="black"/></g></g><g transform="translate(144,0)"><rect x="1" y="1" width="62" height="62" fill="white" stroke="black" stroke-width="1.6"/><g transform="translate(32.0,32.0)"><line x1="0" y1="0" x2="0.0" y2="-26.0"/><circle cx="0.0" cy="-26.0" r="3" fill="black"/><line x1="0" y1="0" x2="24.7" y2="-8.0"/><circle cx="24.7" cy="-8.0" r="3" fill="black"/><line x1="0" y1="0" x2="15.3" y2="21.0"/><circle cx="15.3" cy="21.0" r="3" fill="black"/><line x1="0" y1="0" x2="-15.3" y2="21.0"/><circle cx="-15.3" cy="21.0" r="3" fill="black"/><line x1="0" y1="0" x2="-24.7" y2="-8.0"/><polygon points="-24.73,-8.03 -18.73,-11.34 -21.82,-1.83" fill="black"/></g></g><g transform="translate(216,0)"><rect x="1" y="1" width="62" height="62" fill="white" stroke="black" stroke-width="1.6"/><g transform="translate(32.0,32.0)"><line x1="0" y1="0" x2="0.0" y2="-26.0"/><circle cx="0.0" cy="-26.0" r="3" fill="black"/><line x1="0" y1="0" x2="24.7" y2="-8.0"/><polygon points="24.73,-8.03 21.82,-1.83 18.73,-11.34" fill="black"/><line x1="0" y1="0" x2="15.3" y2="21.0"/><polygon points="15.28,21.03 8.49,20.19 16.58,14.31" fill="black"/><line x1="0" y1="0" x2="-15.3" y2="21.0"/><polygon points="-15.28,21.03 -16.58,14.31 -8.49,20.19" fill="black"/><line x1="0" y1="0" x2="-24.7" y2="-8.0"/><polygon points="-24.73,-8.03 -18.73,-11.34 -21.82,-1.83" fill="black"/></g></g></g></svg>