<svg viewBox="0 0 300 240" xmlns="http://www.w3.org/2000/svg">
<rect x="0" y="0" width="300" height="240" fill="#ffffff"/>
<line x1="30.0" y1="70.0" x2="270.0" y2="70.0" stroke="#333333" stroke-width="1.5"/>
<text x="20.0" y="74.0" font-family="sans-serif" font-size="13" font-weight="normal" fill="#333333" text-anchor="end">A</text>
<text x="280.0" y="74.0" font-family="sans-serif" font-size="13" font-weight="normal" fill="#333333" text-anchor="start">B</text>
<line x1="30.0" y1="170.0" x2="270.0" y2="170.0" stroke="#333333" stroke-width="1.5"/>
<text x="20.0" y="174.0" font-family="sans-serif" font-size="13" font-weight="normal" fill="#333333" text-anchor="end">C</text>
<text x="280.0" y="174.0" font-family="sans-serif" font-size="13" font-weight="normal" fill="#333333" text-anchor="start">D</text>
<line x1="160.4" y1="6.6" x2="159.6" y2="233.4" stroke="#333333" stroke-width="1.5"/>
<text x="156.4" y="0.6" font-family="sans-serif" font-size="13" font-weight="normal" fill="#333333" text-anchor="middle">E</text>
<text x="163.6" y="247.4" font-family="sans-serif" font-size="13" font-weight="normal" fill="#333333" text-anchor="middle">F</text>
<circle cx="190" cy="70" r="2" fill="#333333"/>
<text x="194.0" y="64.0" font-family="sans-serif" font-size="13" font-weight="normal" fill="#333333" text-anchor="middle">G</text>
<circle cx="130" cy="170" r="2" fill="#333333"/>
<text x="134.0" y="164.0" font-family="sans-serif" font-size="13" font-weight="normal" fill="#333333" text-anchor="middle">H</text>
<path d="M 218.0 70.0 A 28 28 0 0 0 178.2 44.6" fill="none" stroke="#333333" stroke-width="1.2"/>
<text x="212.0" y="39.4" font-family="sans-serif" font-size="12" font-weight="normal" fill="#333333" text-anchor="middle">2x°</text>
<path d="M 117.3 142.8 A 30 30 0 0 0 100.0 170.0" fill="none" stroke="#333333" stroke-width="1.2"/>
<text x="92.9" y="150.4" font-family="sans-serif" font-size="12" font-weight="normal" fill="#333333" text-anchor="middle">4x°+12°</text>
</svg>