<svg viewBox="0 0 300 300" xmlns="http://www.w3.org/2000/svg">
<rect x="0" y="0" width="300" height="300" fill="#ffffff"/>
<line x1="150.0" y1="60.0" x2="240.0" y2="150.0" stroke="#333333" stroke-width="1.5"/>
<line x1="240.0" y1="150.0" x2="150.0" y2="240.0" stroke="#333333" stroke-width="1.5"/>
<line x1="150.0" y1="240.0" x2="60.0" y2="150.0" stroke="#333333" stroke-width="1.5"/>
<line x1="60.0" y1="150.0" x2="150.0" y2="60.0" stroke="#333333" stroke-width="1.5"/>
<line x1="150.0" y1="60.0" x2="171.2" y2="38.8" stroke="#333333" stroke-width="1.5"/>
<line x1="150.0" y1="60.0" x2="128.8" y2="38.8" stroke="#333333" stroke-width="1.5"/>
<path d="M 159.9 50.1 A 14 14 0 0 0 140.1 50.1" fill="none" stroke="#333333" stroke-width="1.2"/>
<text x="150.0" y="40.0" font-family="sans-serif" font-size="11" font-weight="normal" fill="#333333" text-anchor="middle">z°</text>
<line x1="240.0" y1="150.0" x2="261.2" y2="171.2" stroke="#333333" stroke-width="1.5"/>
<line x1="240.0" y1="150.0" x2="261.2" y2="128.8" stroke="#333333" stroke-width="1.5"/>
<path d="M 249.9 159.9 A 14 14 0 0 0 249.9 140.1" fill="none" stroke="#333333" stroke-width="1.2"/>
<text x="264.0" y="154.0" font-family="sans-serif" font-size="11" font-weight="normal" fill="#333333" text-anchor="middle">y°</text>
<line x1="150.0" y1="240.0" x2="128.8" y2="261.2" stroke="#333333" stroke-width="1.5"/>
<line x1="150.0" y1="240.0" x2="171.2" y2="261.2" stroke="#333333" stroke-width="1.5"/>
<path d="M 140.1 249.9 A 14 14 0 0 0 159.9 249.9" fill="none" stroke="#333333" stroke-width="1.2"/>
<text x="150.0" y="268.0" font-family="sans-serif" font-size="11" font-weight="normal" fill="#333333" text-anchor="middle">x°</text>
<line x1="60.0" y1="150.0" x2="38.8" y2="128.8" stroke="#333333" stroke-width="1.5"/>
<line x1="60.0" y1="150.0" x2="38.8" y2="171.2" stroke="#333333" stroke-width="1.5"/>
<path d="M 50.1 140.1 A 14 14 0 0 0 50.1 159.9" fill="none" stroke="#333333" stroke-width="1.2"/>
<text x="36.0" y="154.0" font-family="sans-serif" font-size="11" font-weight="normal" fill="#333333" text-anchor="middle">w°</text>
<text x="150.0" y="88.0" font-family="sans-serif" font-size="11" font-weight="normal" fill="#333333" text-anchor="middle">60°</text>
<text x="150.0" y="224.0" font-family="sans-serif" font-size="11" font-weight="normal" fill="#333333" text-anchor="middle">120°</text>
<text x="200.0" y="146.0" font-family="sans-serif" font-size="11" font-weight="normal" fill="#333333" text-anchor="middle">80°</text>
</svg>