<svg viewBox="0 0 360 80" xmlns="http://www.w3.org/2000/svg">
  <defs>
    <pattern id="hatch2" patternUnits="userSpaceOnUse" width="6" height="6" patternTransform="rotate(45)">
      <line x1="0" y1="0" x2="0" y2="6" stroke="#333333" stroke-width="1"/>
    </pattern>
  </defs>
  <polygon points="30,40 30,10 55,40" fill="url(#hatch2)" stroke="none"/>
  <polygon points="30,10 55,40 30,70 5,40" fill="none" stroke="#333333" stroke-width="1.5"/>
  <line x1="30" y1="10" x2="30" y2="70" stroke="#333333" stroke-width="1"/>
  <line x1="5" y1="40" x2="55" y2="40" stroke="#333333" stroke-width="1"/>
  <text x="63" y="45" font-family="sans-serif" font-size="16" fill="#333333">+</text>
  <polygon points="100,40 100,10 125,40" fill="url(#hatch2)" stroke="none"/>
  <polygon points="100,10 125,40 100,70 75,40" fill="none" stroke="#333333" stroke-width="1.5"/>
  <line x1="100" y1="10" x2="100" y2="70" stroke="#333333" stroke-width="1"/>
  <line x1="75" y1="40" x2="125" y2="40" stroke="#333333" stroke-width="1"/>
  <text x="133" y="45" font-family="sans-serif" font-size="16" fill="#333333">+</text>
  <polygon points="170,40 170,10 195,40" fill="url(#hatch2)" stroke="none"/>
  <polygon points="170,10 195,40 170,70 145,40" fill="none" stroke="#333333" stroke-width="1.5"/>
  <line x1="170" y1="10" x2="170" y2="70" stroke="#333333" stroke-width="1"/>
  <line x1="145" y1="40" x2="195" y2="40" stroke="#333333" stroke-width="1"/>
  <text x="203" y="45" font-family="sans-serif" font-size="16" fill="#333333">+</text>
  <polygon points="240,40 240,10 265,40" fill="url(#hatch2)" stroke="none"/>
  <polygon points="240,10 265,40 240,70 215,40" fill="none" stroke="#333333" stroke-width="1.5"/>
  <line x1="240" y1="10" x2="240" y2="70" stroke="#333333" stroke-width="1"/>
  <line x1="215" y1="40" x2="265" y2="40" stroke="#333333" stroke-width="1"/>
  <text x="273" y="45" font-family="sans-serif" font-size="16" fill="#333333">=</text>
  <polygon points="315,10 340,40 315,70 290,40" fill="url(#hatch2)" stroke="#333333" stroke-width="1.5"/>
  <line x1="315" y1="10" x2="315" y2="70" stroke="#333333" stroke-width="1"/>
  <line x1="290" y1="40" x2="340" y2="40" stroke="#333333" stroke-width="1"/>
  <text x="30" y="76" font-family="sans-serif" font-size="10" fill="#333333" text-anchor="middle">1/4</text>
  <text x="100" y="76" font-family="sans-serif" font-size="10" fill="#333333" text-anchor="middle">1/4</text>
  <text x="170" y="76" font-family="sans-serif" font-size="10" fill="#333333" text-anchor="middle">1/4</text>
  <text x="240" y="76" font-family="sans-serif" font-size="10" fill="#333333" text-anchor="middle">1/4</text>
  <text x="315" y="76" font-family="sans-serif" font-size="10" fill="#333333" text-anchor="middle">1</text>
</svg>